<?xml version="1.0" encoding="UTF-8"?><svg id="uuid-1c49c1eb-69bf-46a8-9fd0-183af61526bb" xmlns="http://www.w3.org/2000/svg" viewBox="0 0 66.04 84.11"><g id="uuid-979b9977-ce14-444f-88d1-29041cdd8287"><rect x="6.8" y="3.91" width="59.24" height="80.2" style="fill:#f6f2e8;"/><path d="M51.92,0v48.6c0,8.75-2.42,15.57-7.24,20.48-4.83,4.91-11.54,7.36-20.14,7.36-6.16,0-11.18-1.14-15.06-3.42-3.88-2.28-6.58-5.49-8.1-9.64-1.52-4.14-1.79-8.96-.8-14.43l11.75-2.17c-.91,6.54-.42,11.35,1.48,14.43,1.9,3.08,5.48,4.62,10.72,4.62,5.7,0,9.64-1.65,11.81-4.96,2.17-3.31,3.25-8.16,3.25-14.55V0h12.32Z" style="fill:#ca6556;"/></g></svg>